<svg width="164" height="52" viewBox="0 0 164 52" fill="none" xmlns="http://www.w3.org/2000/svg">
<g clip-path="url(#clip0_1_1599)">
<path d="M122.38 15.72C121.72 15.06 121.4 14.26 121.4 13.32C121.4 12.38 121.73 11.57 122.38 10.92C123.04 10.26 123.84 9.94 124.78 9.94C125.72 9.94 126.46 10.27 127.1 10.92C127.74 11.57 128.06 12.38 128.06 13.32C128.06 14.26 127.74 15.07 127.1 15.72C126.46 16.37 125.69 16.7 124.78 16.7C123.87 16.7 123.03 16.37 122.38 15.72Z" fill="#FF6833"/>
<path d="M144.11 51.41C143.95 51.41 143.79 51.4 143.63 51.37C131.23 48.98 122.23 38.07 122.23 25.42V23.85C122.23 22.47 123.35 21.35 124.73 21.35C126.11 21.35 127.23 22.47 127.23 23.85V25.42C127.23 35.67 134.53 44.52 144.58 46.46C145.94 46.72 146.82 48.03 146.56 49.39C146.33 50.59 145.28 51.42 144.11 51.42V51.41Z" fill="#FF6833"/>
<path d="M0 40.4V2.17999H14.9C18.25 2.17999 21.11 2.70999 23.47 3.75999C25.83 4.80999 27.65 6.33999 28.93 8.33999C30.2 10.34 30.84 12.73 30.84 15.49C30.84 18.25 30.2 20.63 28.93 22.61C27.66 24.59 25.84 26.12 23.47 27.2C21.1 28.28 18.25 28.81 14.9 28.81H3L5.46 26.25V40.39H0V40.4ZM5.46 26.81L3 24.08H14.74C18.23 24.08 20.88 23.33 22.68 21.84C24.48 20.35 25.38 18.24 25.38 15.51C25.38 12.78 24.48 10.67 22.68 9.17999C20.88 7.68999 18.23 6.93999 14.74 6.93999H3L5.46 4.20999V26.8V26.81Z" fill="black"/>
<path d="M41.95 0V40.4H36.98V0H41.95Z" fill="black"/>
<path d="M50.41 17.28C51.65 14.97 53.35 13.18 55.51 11.9C57.68 10.63 60.09 9.98999 62.74 9.98999C65.39 9.98999 67.63 10.55 69.56 11.68C71.49 12.81 72.93 14.23 73.87 15.94V10.48H78.89V40.39H73.87V34.82C72.89 36.57 71.42 38.01 69.48 39.16C67.53 40.31 65.27 40.88 62.68 40.88C60.09 40.88 57.62 40.23 55.47 38.91C53.32 37.6 51.63 35.76 50.39 33.4C49.15 31.03 48.53 28.34 48.53 25.32C48.53 22.3 49.15 19.58 50.39 17.27L50.41 17.28ZM72.52 19.49C71.61 17.82 70.38 16.53 68.84 15.64C67.29 14.75 65.59 14.3 63.74 14.3C61.89 14.3 60.19 14.74 58.66 15.61C57.13 16.48 55.91 17.76 55 19.43C54.09 21.1 53.64 23.07 53.64 25.33C53.64 27.59 54.09 29.62 55 31.31C55.91 33 57.13 34.29 58.66 35.19C60.19 36.08 61.88 36.53 63.74 36.53C65.6 36.53 67.3 36.09 68.84 35.19C70.39 34.3 71.61 33.01 72.52 31.31C73.43 29.62 73.88 27.64 73.88 25.39C73.88 23.14 73.42 21.17 72.52 19.49Z" fill="black"/>
<path d="M110.73 13.24C112.99 15.44 114.11 18.62 114.11 22.77V40.4H109.2V23.47C109.2 20.49 108.45 18.2 106.96 16.62C105.47 15.04 103.43 14.25 100.85 14.25C98.2701 14.25 96.1501 15.07 94.6001 16.71C93.0501 18.35 92.2801 20.73 92.2801 23.86V40.4H87.3101V10.48H92.2801V14.74C93.2601 13.21 94.6001 12.03 96.2901 11.19C97.9801 10.35 99.8501 9.92999 101.88 9.92999C105.52 9.92999 108.47 11.03 110.72 13.23L110.73 13.24Z" fill="black"/>
<path d="M148.94 39.9C140.7 39.9 133.99 33.19 133.99 24.95C133.99 16.71 140.7 10 148.94 10C157.18 10 163.89 16.71 163.89 24.95C163.89 33.19 157.18 39.9 148.94 39.9ZM148.94 15C143.45 15 138.99 19.46 138.99 24.95C138.99 30.44 143.45 34.9 148.94 34.9C154.43 34.9 158.89 30.44 158.89 24.95C158.89 19.46 154.43 15 148.94 15Z" fill="black"/>
</g>
<defs>
<clipPath id="clip0_1_1599">
<rect width="163.89" height="51.41" fill="white"/>
</clipPath>
</defs>
</svg>
