<svg width="152" height="49" viewBox="0 0 152 49" fill="none" xmlns="http://www.w3.org/2000/svg">
<path d="M113.501 15.2849C112.889 14.6728 112.592 13.9308 112.592 13.059C112.592 12.1872 112.898 11.436 113.501 10.8332C114.113 10.221 114.855 9.92426 115.727 9.92426C116.599 9.92426 117.285 10.2303 117.879 10.8332C118.472 11.436 118.769 12.1872 118.769 13.059C118.769 13.9308 118.472 14.6821 117.879 15.2849C117.285 15.8878 116.571 16.1938 115.727 16.1938C114.883 16.1938 114.104 15.8878 113.501 15.2849Z" fill="#FF7C33"/>
<path d="M133.655 48.3856C133.507 48.3856 133.358 48.3763 133.21 48.3485C121.709 46.1319 113.362 36.0134 113.362 24.2811V22.825C113.362 21.5452 114.401 20.5064 115.681 20.5064C116.961 20.5064 118 21.5452 118 22.825V24.2811C118 33.7875 124.77 41.9955 134.091 43.7947C135.352 44.0358 136.168 45.2508 135.927 46.5121C135.714 47.6251 134.74 48.3949 133.655 48.3949V48.3856Z" fill="#FF7C33"/>
<path d="M0 38.1746V2.72742H13.819C16.926 2.72742 19.5785 3.21897 21.7673 4.19279C23.9561 5.16661 25.644 6.58561 26.8312 8.44052C28.009 10.2954 28.6026 12.512 28.6026 15.0718C28.6026 17.6316 28.009 19.8389 26.8312 21.6752C25.6533 23.5116 23.9653 24.9306 21.7673 25.9323C19.5692 26.9339 16.926 27.4254 13.819 27.4254H2.78235L5.06388 25.0512V38.1653H0V38.1746ZM5.06388 25.5705L2.78235 23.0386H13.6706C16.9074 23.0386 19.3652 22.343 21.0346 20.9611C22.704 19.5792 23.5387 17.6223 23.5387 15.0903C23.5387 12.5584 22.704 10.6015 21.0346 9.21958C19.3652 7.83767 16.9074 7.14209 13.6706 7.14209H2.78235L5.06388 4.61014V25.5613V25.5705Z" fill="black"/>
<path d="M38.9068 0.705688V38.1747H34.2974V0.705688H38.9068Z" fill="black"/>
<path d="M46.7529 16.7319C47.9029 14.5895 49.4796 12.9294 51.4829 11.7423C53.4955 10.5644 55.7306 9.97083 58.1884 9.97083C60.6461 9.97083 62.7236 10.4902 64.5136 11.5382C66.3036 12.5862 67.6391 13.9032 68.5109 15.4892V10.4253H73.1667V38.1653H68.5109V32.9994C67.602 34.6225 66.2386 35.958 64.4394 37.0246C62.6309 38.0912 60.5348 38.6198 58.1327 38.6198C55.7306 38.6198 53.4398 38.017 51.4458 36.7927C49.4518 35.5778 47.8844 33.8712 46.7343 31.6825C45.5843 29.4844 45.0093 26.9896 45.0093 24.1887C45.0093 21.3878 45.5843 18.8651 46.7343 16.7227L46.7529 16.7319ZM67.2588 18.7816C66.4149 17.2328 65.2741 16.0364 63.8458 15.2109C62.4083 14.3855 60.8316 13.9681 59.1158 13.9681C57.4 13.9681 55.8234 14.3762 54.4044 15.1831C52.9854 15.99 51.8539 17.1771 51.0099 18.726C50.1659 20.2748 49.7486 22.1019 49.7486 24.1979C49.7486 26.294 50.1659 28.1767 51.0099 29.7441C51.8539 31.3115 52.9854 32.5079 54.4044 33.3426C55.8234 34.168 57.3908 34.5854 59.1158 34.5854C60.8409 34.5854 62.4175 34.1773 63.8458 33.3426C65.2834 32.5172 66.4149 31.3208 67.2588 29.7441C68.1028 28.1767 68.5202 26.3403 68.5202 24.2536C68.5202 22.1668 68.0935 20.3397 67.2588 18.7816Z" fill="black"/>
<path d="M102.697 12.9851C104.793 15.0255 105.831 17.9748 105.831 21.8238V38.1747H101.277V22.473C101.277 19.7092 100.582 17.5853 99.2 16.1199C97.8181 14.6546 95.9261 13.9219 93.5333 13.9219C91.1405 13.9219 89.1743 14.6824 87.7367 16.2034C86.2992 17.7244 85.585 19.9318 85.585 22.8347V38.1747H80.9756V10.4254H85.585V14.3763C86.4939 12.9573 87.7367 11.8629 89.3041 11.0839C90.8715 10.3048 92.6058 9.91528 94.4886 9.91528C97.8645 9.91528 100.6 10.9355 102.687 12.9759L102.697 12.9851Z" fill="black"/>
<path d="M138.134 37.711C130.492 37.711 124.269 31.4878 124.269 23.8456C124.269 16.2034 130.492 9.98016 138.134 9.98016C145.777 9.98016 152 16.2034 152 23.8456C152 31.4878 145.777 37.711 138.134 37.711ZM138.134 14.6174C133.043 14.6174 128.906 18.7539 128.906 23.8456C128.906 28.9373 133.043 33.0737 138.134 33.0737C143.226 33.0737 147.363 28.9373 147.363 23.8456C147.363 18.7539 143.226 14.6174 138.134 14.6174Z" fill="black"/>
</svg>
